<?xml version="1.0" encoding="utf-8"?>
<!-- Generator: Adobe Illustrator 27.5.0, SVG Export Plug-In . SVG Version: 6.00 Build 0)  -->
<svg version="1.1" xmlns="http://www.w3.org/2000/svg" xmlns:xlink="http://www.w3.org/1999/xlink" x="0px" y="0px"
	 viewBox="0 0 750 500" style="enable-background:new 0 0 750 500;" xml:space="preserve">
<g id="Background_Simple">
	<g>
		<path style="fill:#92E3A9;" d="M710.835,310.156c-9.145-43.258-27.667-85.598-49.945-123.662
			c-36.18-61.815-90.24-116.18-162.167-132.364C335.729,17.456,300.685,178.005,264.012,199.194
			c-36.674,21.189-127.95,9.78-177.663,77.422C36.636,344.258,42.34,451.019,42.34,451.019s675.608,0,675.608,0
			C719.488,403.815,720.576,356.232,710.835,310.156z"/>
		<path style="opacity:0.7;fill:#FFFFFF;" d="M710.835,310.156c-9.145-43.258-27.667-85.598-49.945-123.662
			c-36.18-61.815-90.24-116.18-162.167-132.364C335.729,17.456,300.685,178.005,264.012,199.194
			c-36.674,21.189-127.95,9.78-177.663,77.422C36.636,344.258,42.34,451.019,42.34,451.019s675.608,0,675.608,0
			C719.488,403.815,720.576,356.232,710.835,310.156z"/>
	</g>
</g>
<g id="Plants">
	<g>
		<g style="opacity:0.15;">
			<g>
				<path d="M326.217,450.395c-0.06-0.326-6.046-33.14-8.528-78.363c-2.289-41.707-2.723-100.974,11.742-155.17l-1.41-2.399
					c-8.028,30.076-16.723,81.853-12.555,157.725c2.491,45.357,8.499,78.284,8.559,78.61L326.217,450.395z"/>
			</g>
			<g>
				<path d="M350.887,251.783c-16.774,6.168-26.808,12.081-32.142,15.813c0.627-6.609,5.06-22.279,30.713-40.619
					c40.643-29.056,119.539-4.265,137.943,2.124C447.042,230.785,393.278,236.196,350.887,251.783z"/>
				<path d="M351.574,253.113c43.493-15.951,99.017-21.172,139.563-22.673c0.107,0.04,0.179,0.067,0.179,0.067
					s-45.071,41.074-99.843,50.157c-54.772,9.083-72.732-9.714-72.732-9.714s-0.084-0.5-0.088-1.435
					C323.644,265.906,333.886,259.6,351.574,253.113z"/>
			</g>
			<g>
				<path d="M293.521,276.546c12.26,8.186,19.164,14.866,22.72,18.888c0.773-5.421,0.245-18.843-16.784-38.504
					c-26.98-31.149-95.034-26.507-111.026-24.938C220.47,241.137,262.538,255.86,293.521,276.546z"/>
				<path d="M292.713,277.48c-31.797-21.191-75.312-36.101-107.536-45.136c-0.094,0.012-0.156,0.02-0.156,0.02
					s28.209,41.642,70.377,59.504c42.167,17.862,60.2,6.257,60.2,6.257s0.164-0.384,0.348-1.133
					C312.639,293.133,305.644,286.098,292.713,277.48z"/>
			</g>
			<g>
				<path d="M341.214,376.358c-12.26,8.186-19.164,14.866-22.72,18.888c-0.773-5.421-0.245-18.843,16.784-38.504
					c26.98-31.149,95.034-26.507,111.026-24.939C414.265,340.95,372.197,355.672,341.214,376.358z"/>
				<path d="M342.022,377.292c31.796-21.191,75.312-36.101,107.536-45.136c0.094,0.012,0.156,0.02,0.156,0.02
					s-28.209,41.642-70.377,59.504s-60.2,6.257-60.2,6.257s-0.164-0.384-0.348-1.133
					C322.096,392.945,329.091,385.91,342.022,377.292z"/>
			</g>
			<g>
				<path d="M285.216,345.926c16.094,7.771,25.505,14.633,30.451,18.865c0.019-6.639-2.868-22.666-26.616-43.414
					c-37.624-32.872-118.557-15.875-137.495-11.308C191.56,315.672,244.542,326.288,285.216,345.926z"/>
				<path d="M284.402,347.183c-41.735-20.107-96.487-30.706-136.695-36.144c-0.111,0.03-0.184,0.05-0.184,0.05
					s40.861,45.264,94.49,59.633c53.629,14.369,73.332-2.591,73.332-2.591s0.132-0.489,0.227-1.419
					C310.955,362.633,301.376,355.36,284.402,347.183z"/>
			</g>
			<g>
				<path d="M338.852,181.298c-7.116,16.394-9.764,27.736-10.746,34.171c-4.349-5.016-12.627-19.04-8.188-50.261
					c7.033-49.464,79.43-89.435,96.756-98.341C390.034,97.232,356.837,139.867,338.852,181.298z"/>
				<path d="M340.289,181.719c18.482-42.48,53.031-86.257,79.933-116.63c0.103-0.05,0.172-0.083,0.172-0.083
					s-1.393,60.963-32.63,106.863c-31.237,45.9-57.235,45.919-57.235,45.919s-0.419-0.284-1.099-0.927
					C330.266,210.758,332.773,198.995,340.289,181.719z"/>
			</g>
		</g>
		<g style="opacity:0.15;">
			<g>
				<path d="M530.173,450.557c-0.036-0.195-3.608-19.776-5.089-46.763c-1.366-24.888-1.625-60.256,7.007-92.597l-0.841-1.432
					c-4.791,17.948-9.979,48.846-7.492,94.122c1.487,27.067,5.072,46.715,5.108,46.91L530.173,450.557z"/>
			</g>
			<g>
				<path d="M544.894,332.036c-10.01,3.681-15.997,7.21-19.181,9.436c0.375-3.944,3.02-13.295,18.328-24.239
					c24.254-17.339,71.334-2.545,82.317,1.267C602.275,319.506,570.192,322.735,544.894,332.036z"/>
				<path d="M545.305,332.83c25.955-9.519,59.088-12.634,83.284-13.53c0.064,0.024,0.107,0.04,0.107,0.04
					s-26.896,24.511-59.581,29.931c-32.685,5.42-43.403-5.797-43.403-5.797s-0.05-0.298-0.052-0.856
					C528.638,340.465,534.749,336.701,545.305,332.83z"/>
			</g>
			<g>
				<path d="M510.662,346.814c7.316,4.885,11.436,8.871,13.558,11.271c0.461-3.235,0.146-11.245-10.016-22.977
					c-16.1-18.588-56.711-15.818-66.254-14.882C467.069,325.684,492.173,334.469,510.662,346.814z"/>
				<path d="M510.18,347.371c-18.974-12.646-44.942-21.543-64.172-26.935c-0.056,0.007-0.093,0.012-0.093,0.012
					s16.834,24.85,41.997,35.509c25.163,10.659,35.924,3.734,35.924,3.734s0.098-0.229,0.208-0.676
					C522.07,356.712,517.896,352.514,510.18,347.371z"/>
			</g>
			<g>
				<path d="M539.122,406.377c-7.316,4.885-11.436,8.871-13.558,11.271c-0.461-3.235-0.146-11.244,10.016-22.977
					c16.1-18.588,56.711-15.818,66.254-14.882C582.715,385.247,557.612,394.032,539.122,406.377z"/>
				<path d="M539.605,406.934c18.974-12.646,44.942-21.543,64.172-26.935c0.056,0.007,0.093,0.012,0.093,0.012
					s-16.834,24.85-41.997,35.509c-25.163,10.659-35.924,3.734-35.924,3.734s-0.098-0.229-0.207-0.676
					C527.714,416.275,531.888,412.077,539.605,406.934z"/>
			</g>
			<g>
				<path d="M505.706,388.216c9.604,4.637,15.22,8.732,18.171,11.257c0.011-3.962-1.712-13.526-15.883-25.907
					c-22.452-19.617-70.748-9.474-82.049-6.748C449.817,370.162,481.434,376.497,505.706,388.216z"/>
				<path d="M505.22,388.966c-24.905-11.999-57.578-18.323-81.572-21.569c-0.066,0.018-0.11,0.03-0.11,0.03
					s24.384,27.011,56.386,35.586c32.003,8.575,43.761-1.547,43.761-1.547s0.079-0.292,0.136-0.847
					C521.066,398.186,515.349,393.846,505.22,388.966z"/>
			</g>
			<g>
				<path d="M537.713,289.975c-4.247,9.783-5.826,16.552-6.413,20.391c-2.595-2.993-7.535-11.362-4.886-29.993
					c4.197-29.517,47.4-53.37,57.739-58.684C568.256,239.809,548.445,265.251,537.713,289.975z"/>
				<path d="M538.57,290.226c11.029-25.35,31.646-51.474,47.7-69.598c0.062-0.03,0.103-0.049,0.103-0.049s-0.831,36.38-19.472,63.77
					c-18.64,27.391-34.154,27.402-34.154,27.402s-0.25-0.17-0.656-0.553C532.589,307.555,534.085,300.536,538.57,290.226z"/>
			</g>
		</g>
		<g style="opacity:0.15;">
			<g>
				<path d="M653.933,450.616c-0.027-0.147-2.729-14.962-3.85-35.38c-1.033-18.83-1.23-45.589,5.302-70.057l-0.637-1.083
					c-3.625,13.579-7.55,36.956-5.669,71.211c1.125,20.478,3.837,35.344,3.864,35.492L653.933,450.616z"/>
			</g>
			<g>
				<path d="M665.071,360.945c-7.573,2.785-12.103,5.455-14.512,7.139c0.283-2.984,2.285-10.059,13.867-18.339
					c18.35-13.118,53.97-1.926,62.279,0.959C708.484,351.465,684.211,353.908,665.071,360.945z"/>
				<path d="M665.382,361.546c19.637-7.202,44.705-9.559,63.011-10.237c0.048,0.018,0.081,0.03,0.081,0.03
					s-20.349,18.545-45.078,22.645c-24.729,4.101-32.838-4.386-32.838-4.386s-0.038-0.226-0.04-0.648
					C652.772,367.322,657.396,364.474,665.382,361.546z"/>
			</g>
			<g>
				<path d="M639.172,372.125c5.535,3.696,8.652,6.712,10.258,8.527c0.349-2.448,0.111-8.507-7.578-17.384
					c-12.181-14.064-42.907-11.968-50.127-11.259C606.19,356.139,625.183,362.786,639.172,372.125z"/>
				<path d="M638.807,372.547c-14.356-9.567-34.003-16.299-48.551-20.378c-0.042,0.005-0.071,0.009-0.071,0.009
					s12.736,18.801,31.774,26.865c19.038,8.065,27.179,2.825,27.179,2.825s0.074-0.174,0.157-0.512
					C647.803,379.614,644.645,376.438,638.807,372.547z"/>
			</g>
			<g>
				<path d="M660.704,417.19c-5.535,3.696-8.652,6.712-10.258,8.527c-0.349-2.448-0.111-8.507,7.578-17.384
					c12.181-14.064,42.907-11.968,50.127-11.259C693.686,401.203,674.693,407.85,660.704,417.19z"/>
				<path d="M661.069,417.611c14.356-9.567,34.003-16.299,48.551-20.378c0.042,0.005,0.071,0.009,0.071,0.009
					s-12.736,18.801-31.774,26.865c-19.038,8.065-27.179,2.825-27.179,2.825s-0.074-0.174-0.157-0.512
					C652.073,424.678,655.231,421.502,661.069,417.611z"/>
			</g>
			<g>
				<path d="M635.422,403.449c7.267,3.508,11.515,6.606,13.748,8.517c0.008-2.997-1.295-10.234-12.017-19.601
					c-16.987-14.841-53.527-7.168-62.077-5.105C593.137,389.79,617.058,394.583,635.422,403.449z"/>
				<path d="M635.055,404.017c-18.843-9.078-43.563-13.863-61.716-16.319c-0.05,0.013-0.083,0.022-0.083,0.022
					s18.448,20.436,42.661,26.924c24.213,6.487,33.109-1.17,33.109-1.17s0.06-0.221,0.103-0.641
					C647.043,410.992,642.718,407.709,635.055,404.017z"/>
			</g>
			<g>
				<path d="M659.638,329.122c-3.213,7.402-4.408,12.522-4.852,15.428c-1.964-2.265-5.701-8.596-3.697-22.692
					c3.175-22.332,35.862-40.379,43.684-44.4C682.746,291.167,667.758,310.417,659.638,329.122z"/>
				<path d="M660.287,329.312c8.344-19.179,23.943-38.944,36.089-52.657c0.047-0.023,0.078-0.037,0.078-0.037
					s-0.629,27.524-14.732,48.247c-14.103,20.723-25.648,20.472-25.648,20.472s-0.382,0.131-0.688-0.159
					C655.761,342.423,656.893,337.112,660.287,329.312z"/>
			</g>
		</g>
		<g style="opacity:0.15;">
			<g>
				<path d="M99.256,450.616c0.027-0.147,2.729-14.962,3.85-35.38c1.033-18.83,1.229-45.589-5.302-70.057l0.637-1.083
					c3.625,13.579,7.55,36.956,5.669,71.211c-1.125,20.478-3.837,35.344-3.864,35.492L99.256,450.616z"/>
			</g>
			<g>
				<path d="M88.117,360.945c7.573,2.785,12.103,5.455,14.512,7.139c-0.283-2.984-2.285-10.059-13.867-18.339
					c-18.35-13.118-53.97-1.926-62.279,0.959C44.704,351.465,68.978,353.908,88.117,360.945z"/>
				<path d="M87.807,361.546c-19.637-7.202-44.705-9.559-63.011-10.237c-0.049,0.018-0.081,0.03-0.081,0.03
					s20.349,18.545,45.078,22.645c24.729,4.101,32.838-4.386,32.838-4.386s0.038-0.226,0.04-0.648
					C100.417,367.322,95.793,364.474,87.807,361.546z"/>
			</g>
			<g>
				<path d="M114.017,372.125c-5.535,3.696-8.652,6.712-10.258,8.527c-0.349-2.448-0.111-8.507,7.578-17.384
					c12.181-14.064,42.907-11.968,50.127-11.259C146.999,356.139,128.006,362.786,114.017,372.125z"/>
				<path d="M114.382,372.547c14.356-9.567,34.002-16.299,48.551-20.378c0.042,0.005,0.071,0.009,0.071,0.009
					s-12.736,18.801-31.774,26.865c-19.038,8.065-27.179,2.825-27.179,2.825s-0.074-0.174-0.157-0.512
					C105.386,379.614,108.544,376.438,114.382,372.547z"/>
			</g>
			<g>
				<path d="M92.484,417.19c5.535,3.696,8.652,6.712,10.258,8.527c0.349-2.448,0.111-8.507-7.578-17.384
					c-12.181-14.064-42.907-11.968-50.127-11.259C59.503,401.203,78.496,407.85,92.484,417.19z"/>
				<path d="M92.119,417.611c-14.356-9.567-34.002-16.299-48.551-20.378c-0.042,0.005-0.071,0.009-0.071,0.009
					s12.736,18.801,31.774,26.865c19.038,8.065,27.179,2.825,27.179,2.825s0.074-0.174,0.157-0.512
					C101.116,424.678,97.958,421.502,92.119,417.611z"/>
			</g>
			<g>
				<path d="M117.767,403.449c-7.266,3.508-11.515,6.606-13.748,8.517c-0.008-2.997,1.295-10.234,12.017-19.601
					c16.987-14.841,53.527-7.168,62.077-5.105C160.051,389.79,136.13,394.583,117.767,403.449z"/>
				<path d="M118.134,404.017c18.843-9.078,43.563-13.863,61.716-16.319c0.05,0.013,0.083,0.022,0.083,0.022
					s-18.448,20.436-42.661,26.924c-24.213,6.487-33.109-1.17-33.109-1.17s-0.06-0.221-0.103-0.641
					C106.146,410.992,110.471,407.709,118.134,404.017z"/>
			</g>
			<g>
				<path d="M93.551,329.122c3.213,7.402,4.408,12.522,4.852,15.428c1.963-2.265,5.701-8.596,3.697-22.692
					c-3.175-22.332-35.862-40.379-43.684-44.4C70.443,291.167,85.431,310.417,93.551,329.122z"/>
				<path d="M92.902,329.312c-8.344-19.179-23.943-38.944-36.089-52.657c-0.047-0.023-0.078-0.037-0.078-0.037
					s0.629,27.524,14.732,48.247c14.103,20.723,25.841,20.732,25.841,20.732s0.189-0.128,0.496-0.418
					C97.427,342.423,96.296,337.112,92.902,329.312z"/>
			</g>
		</g>
	</g>
</g>
<g id="Bars">
	<g>
		<g>
			<rect x="546.748" y="150.681" style="fill:#263238;stroke:#263238;stroke-miterlimit:10;" width="70.052" height="300.117"/>
			<rect x="568.133" y="150.681" style="fill:#FFFFFF;stroke:#263238;stroke-miterlimit:10;" width="70.052" height="300.117"/>
		</g>
		<g>
			<rect x="388.947" y="254.653" style="fill:#263238;stroke:#263238;stroke-miterlimit:10;" width="70.052" height="196.145"/>
			<rect x="410.331" y="254.653" style="fill:#FFFFFF;stroke:#263238;stroke-miterlimit:10;" width="70.052" height="196.145"/>
		</g>
		<g>
			<rect x="225.247" y="313.644" style="fill:#263238;stroke:#263238;stroke-miterlimit:10;" width="70.052" height="137.154"/>
			<rect x="246.631" y="313.644" style="fill:#FFFFFF;stroke:#263238;stroke-miterlimit:10;" width="70.052" height="137.154"/>
		</g>
	</g>
</g>
<g id="Spikes">
	<g>
		<g>
			<g>
				<g>
					
						<line style="fill:none;stroke:#263238;stroke-width:4;stroke-miterlimit:10;" x1="330.268" y1="450.798" x2="330.268" y2="350.295"/>
					<g>
						<path style="fill:#263238;" d="M330.268,354.46l-8.359,5.084l-0.189-0.285l5.414-13.63c1.044-4.749,2.089-9.497,3.134-14.246
							c1.044,4.749,2.089,9.497,3.135,14.246l5.414,13.63l-0.143,0.285L330.268,354.46z"/>
					</g>
				</g>
			</g>
			<g>
				<g>
					
						<line style="fill:none;stroke:#263238;stroke-width:4;stroke-miterlimit:10;" x1="352.867" y1="450.798" x2="352.867" y2="350.295"/>
					<g>
						<path style="fill:#263238;" d="M352.867,354.46l-8.359,5.084l-0.189-0.285l5.414-13.63c1.044-4.749,2.089-9.497,3.134-14.246
							c1.044,4.749,2.089,9.497,3.134,14.246l5.414,13.63l-0.143,0.285L352.867,354.46z"/>
					</g>
				</g>
			</g>
			<g>
				<g>
					
						<line style="fill:none;stroke:#263238;stroke-width:4;stroke-miterlimit:10;" x1="375.465" y1="450.798" x2="375.465" y2="350.295"/>
					<g>
						<path style="fill:#263238;" d="M375.465,354.46l-8.359,5.084l-0.189-0.285l5.414-13.63c1.044-4.749,2.089-9.497,3.134-14.246
							c1.045,4.749,2.089,9.497,3.135,14.246l5.414,13.63l-0.143,0.285L375.465,354.46z"/>
					</g>
				</g>
			</g>
			<g>
				<g>
					
						<line style="fill:none;stroke:#FFFFFF;stroke-width:4;stroke-miterlimit:10;" x1="398.063" y1="450.798" x2="398.063" y2="350.295"/>
					<g>
						<path style="fill:#FFFFFF;" d="M398.063,354.46l-8.359,5.084l-0.189-0.285l5.414-13.63c1.044-4.749,2.089-9.497,3.134-14.246
							c1.044,4.749,2.089,9.497,3.134,14.246l5.414,13.63l-0.143,0.285L398.063,354.46z"/>
					</g>
				</g>
			</g>
		</g>
		<g>
			<g>
				<g>
					
						<line style="fill:none;stroke:#263238;stroke-width:4;stroke-miterlimit:10;" x1="488.829" y1="450.798" x2="488.829" y2="299.287"/>
					<g>
						<path style="fill:#263238;" d="M488.829,303.451l-8.359,5.084l-0.189-0.285l5.414-13.63c1.045-4.749,2.089-9.497,3.135-14.246
							c1.044,4.749,2.089,9.497,3.134,14.246l5.414,13.63l-0.143,0.285L488.829,303.451z"/>
					</g>
				</g>
			</g>
			<g>
				<g>
					
						<line style="fill:none;stroke:#263238;stroke-width:4;stroke-miterlimit:10;" x1="511.427" y1="450.798" x2="511.427" y2="299.287"/>
					<g>
						<path style="fill:#263238;" d="M511.427,303.451l-8.359,5.084l-0.189-0.285l5.414-13.63c1.044-4.749,2.089-9.497,3.134-14.246
							c1.044,4.749,2.089,9.497,3.135,14.246l5.414,13.63l-0.143,0.285L511.427,303.451z"/>
					</g>
				</g>
			</g>
			<g>
				<g>
					
						<line style="fill:none;stroke:#263238;stroke-width:4;stroke-miterlimit:10;" x1="534.025" y1="450.798" x2="534.025" y2="299.287"/>
					<g>
						<path style="fill:#263238;" d="M534.025,303.451l-8.359,5.084l-0.189-0.285l5.414-13.63c1.044-4.749,2.089-9.497,3.135-14.246
							c1.044,4.749,2.089,9.497,3.135,14.246l5.414,13.63l-0.143,0.285L534.025,303.451z"/>
					</g>
				</g>
			</g>
			<g>
				<g>
					
						<line style="fill:none;stroke:#FFFFFF;stroke-width:4;stroke-miterlimit:10;" x1="556.623" y1="450.798" x2="556.623" y2="299.287"/>
					<g>
						<path style="fill:#FFFFFF;" d="M556.623,303.451l-8.359,5.084l-0.189-0.285l5.414-13.63c1.044-4.749,2.089-9.497,3.134-14.246
							c1.045,4.749,2.089,9.497,3.135,14.246l5.414,13.63l-0.143,0.285L556.623,303.451z"/>
					</g>
				</g>
			</g>
		</g>
	</g>
</g>
<g id="Clouds">
	<path style="fill:#FFFFFF;stroke:#263238;stroke-miterlimit:10;" d="M345.587,99.024c0,0-3.872-18.071-17.426-22.589
		c-13.553-4.518-16.78,4.518-20.653,9.681c-3.872,5.163-9.681-2.582-18.071,0c-8.39,2.581-5.163,9.681-10.326,12.262
		c-5.163,2.582-14.199-3.227-20.007,1.291c-5.809,4.518-7.099,8.39-7.099,8.39H374.63C374.63,108.059,355.268,89.988,345.587,99.024
		z"/>
	<path style="fill:#FFFFFF;stroke:#263238;stroke-miterlimit:10;" d="M565.628,192.745c0,0-3.872-18.071-17.426-22.589
		c-13.553-4.518-16.78,4.518-20.653,9.681c-3.872,5.163-9.681-2.582-18.071,0c-8.39,2.581-5.163,9.681-10.326,12.262
		c-5.163,2.581-14.199-3.227-20.007,1.291c-5.809,4.518-7.099,8.39-7.099,8.39h122.625
		C594.671,201.78,575.309,183.709,565.628,192.745z"/>
	<path style="fill:#FFFFFF;stroke:#263238;stroke-miterlimit:10;" d="M168.064,171.195c0,0-2.514-11.734-11.315-14.667
		c-8.801-2.934-10.896,2.934-13.41,6.286c-2.514,3.352-6.286-1.676-11.734,0c-5.448,1.676-3.353,6.286-6.705,7.962
		c-3.353,1.676-9.22-2.095-12.991,0.838c-3.772,2.933-4.61,5.448-4.61,5.448h79.623C186.922,177.062,174.35,165.328,168.064,171.195
		z"/>
</g>
<g id="Character">
	<g>
		<g>
			<g>
				<path style="fill:#FFFFFF;stroke:#263238;stroke-miterlimit:10;" d="M114.469,405.391c0,0-4.46,1.357-7.369,0.97
					c-2.909-0.388-5.429-0.388-6.011,2.133c-0.582,2.521,0,5.042-0.582,6.593c-0.582,1.551-2.521,3.684-2.133,6.593
					c0.388,2.909,1.357,9.695,3.103,8.726c1.745-0.97,4.072-9.308,5.042-11.053c0.969-1.745,3.584-5.749,5.526-6.598
					c1.552-0.679,3.881-0.679,3.881-0.679L114.469,405.391z"/>
				<path style="fill:#263238;stroke:#263238;stroke-miterlimit:10;" d="M102.634,420.03c0,0,1.358-3.299,2.037-8.053
					c0.358-2.504,1.065-4.409,1.74-5.701c-2.609-0.287-4.787-0.103-5.322,2.216c-0.582,2.521,0,5.042-0.582,6.593
					c-0.582,1.551-2.521,3.684-2.133,6.593c0.388,2.909,1.357,9.695,3.103,8.726c1.316-0.731,2.962-5.648,4.108-8.773
					L102.634,420.03z"/>
			</g>
			<path style="fill:#263238;stroke:#263238;stroke-miterlimit:10;" d="M163.722,340.819c-0.194-15.513-5.817-19.779-5.817-19.779
				c-27.147,3.49-32.383-4.654-32.383-4.654l-3.296,2.521c-5.623,6.011-8.338,14.543-9.308,24.239
				c-0.969,9.695,10.859,42.078,10.859,42.078s-5.042,9.695-8.92,17.258c-3.878,7.563-1.939,24.433-3.297,28.892
				c-1.357,4.46-4.848,7.175-4.072,11.053c0.776,3.878,0.582,7.369,3.49,7.756c2.909,0.388,7.175,1.164,8.338,0
				c1.163-1.163-1.163-2.909-1.939-6.205c-0.776-3.296-1.357-8.338-1.357-8.338l15.125-29.086c0,0,29.862-15.319,30.638-16.87
				C162.558,388.133,163.916,356.332,163.722,340.819z M142.198,384.836l-2.715-37.618l2.327-0.194l4.654,35.679L142.198,384.836z"
				/>
			<path style="fill:#FFFFFF;stroke:#263238;stroke-miterlimit:10;" d="M112.477,413.647c-0.512,7.217-0.063,14.924-0.917,17.728
				c-1.357,4.46-4.848,7.175-4.072,11.053c0.776,3.878,0.582,7.369,3.49,7.756c2.909,0.388,7.175,1.164,8.338,0
				c1.163-1.163-1.163-2.909-1.939-6.205c-0.776-3.296-1.357-8.338-1.357-8.338l9.354-17.989
				C118.396,419.453,114.356,416.042,112.477,413.647z"/>
			<path style="fill:#263238;stroke:#263238;stroke-miterlimit:10;" d="M119.316,450.184c1.163-1.163-1.163-2.909-1.939-6.205
				l-6.205,0.388c0,0-1.28-4.041-2.156-7.767c-1.09,1.913-1.955,3.695-1.529,5.828c0.776,3.878,0.582,7.369,3.49,7.756
				C113.887,450.571,118.153,451.347,119.316,450.184z"/>
			<line style="fill:none;stroke:#FFFFFF;stroke-miterlimit:10;" x1="141.616" y1="386.775" x2="133.278" y2="403.452"/>
		</g>
		<g>
			<path style="fill:#FFFFFF;stroke:#263238;stroke-miterlimit:10;" d="M167.6,299.516c0,0,0,4.072-1.939,6.593
				c-1.939,2.521-6.399,4.654-6.399,4.654l-1.357,10.277c0,0-3.101,2.286-10.471,2.715c-7.37,0.429-14.543-3.103-14.543-3.103
				l4.848-41.69c0,0,9.308-3.297,15.125-4.848c5.817-1.551,13.574,0.388,13.574,0.388S167.6,290.402,167.6,299.516z"/>
			<path style="fill:none;stroke:#263238;stroke-miterlimit:10;" d="M166.436,274.502c0,0-7.756-1.939-13.574-0.388
				c-5.817,1.551-15.125,4.848-15.125,4.848l-0.789,6.788c4.033,2.665,10.355,5.459,18.823,5.041
				c4.415-0.218,8.232-1.662,11.439-3.625C166.872,280.457,166.436,274.502,166.436,274.502z"/>
		</g>
		<g>
			<path style="fill:#92E3A9;stroke:#263238;stroke-miterlimit:10;" d="M164.189,274.242c0,0,22.545-2.395,27.054-2.959
				c4.509-0.564,10.427-1.691,10.427-1.691l9.678,4.533c0,0,0.749,3.076-0.941,5.471c-1.691,2.395-38.327,13.386-38.327,13.386
				s-1.127,40.299-1.127,42.977c0,2.677,0.141,3.1-1.55,4.509c-1.691,1.409-10.991,5.495-10.991,5.495s4.65-18.036,5.918-26.068
				c1.268-8.032,2.114-34.663,1.55-39.313C165.316,275.933,164.189,274.242,164.189,274.242z"/>
			<polyline style="fill:none;stroke:#263238;stroke-miterlimit:10;" points="173.63,278.61 172.079,292.983 177.575,279.315 			"/>
			<path style="fill:#92E3A9;stroke:#263238;stroke-miterlimit:10;" d="M165.88,280.583c0.564,4.65-0.282,31.281-1.55,39.313
				c-0.167,1.056-0.393,2.287-0.658,3.624l0.095,0.039c0,0,5.073-11.695,5.777-27.054c0.496-10.806-0.403-18.886-0.98-22.73
				c-2.622,0.28-4.375,0.467-4.375,0.467S165.316,275.933,165.88,280.583z"/>
		</g>
		<g>
			<path style="fill:#FFFFFF;stroke:#263238;stroke-miterlimit:10;" d="M148.831,280.189l2.09-8.751c0,0-1.698-0.914-3.788-2.09
				c-2.09-1.175-6.4-5.747-4.31-13.714c2.09-7.967,7.183-9.143,7.183-9.143s7.183-3.526,13.975-1.306
				c6.792,2.22,7.575,6.139,7.837,7.183c0.261,1.045-0.784,3.396-0.261,3.788c0.522,0.392,5.616,2.482,5.224,3.657
				c-0.392,1.175-2.09,3.265-2.09,3.265s-0.522,7.836-1.567,8.881c-1.045,1.045-6.661,1.306-6.661,1.306l-4.702,9.796"/>
			<path style="fill:#263238;stroke:#263238;stroke-miterlimit:10;" d="M161.238,246.884c2.137-0.635,4.093-0.657,5.613-0.484
				c-0.816-0.436-1.755-0.849-2.87-1.214c-6.792-2.22-13.975,1.306-13.975,1.306s-5.094,1.175-7.183,9.143
				c-2.09,7.967,2.22,12.538,4.31,13.714c1.239,0.697,2.33,1.296,3.021,1.674c0.936-2.017,2.184-4.835,3.117-7.42
				c0.693-1.92,3.243,0.529,4.31-1.567c0.239-0.47-0.162-3.215,0.065-3.673c1.241-2.498,2.22-4.751,2.024-6.122
				C159.279,249.496,156.406,248.321,161.238,246.884z"/>
			<path style="fill:#FFFFFF;stroke:#263238;stroke-miterlimit:10;" d="M156.014,264.255c0,0-2.873-4.179-5.224-2.09
				c-2.351,2.09-0.261,6.661,4.179,6.139"/>
			<path style="fill:#263238;stroke:#263238;stroke-miterlimit:10;" d="M145.304,249.888c0,0-4.179-4.31-7.314-5.094
				c-3.135-0.784-7.053-1.045-9.404,4.049c-2.351,5.094-1.567,9.143,1.437,11.232c3.004,2.09,5.616,2.351,8.098,0.784
				c2.481-1.567,4.049-3.918,4.702-5.224C143.476,254.329,145.304,249.888,145.304,249.888z"/>
			<path style="fill:#263238;" d="M169.075,256.223c0,0.902-0.38,1.633-0.849,1.633c-0.469,0-0.849-0.731-0.849-1.633
				c0-0.902,0.38-1.633,0.849-1.633C168.695,254.59,169.075,255.321,169.075,256.223z"/>
			<path style="fill:none;stroke:#263238;stroke-miterlimit:10;" d="M166.071,253.153c0,0,2.612-0.914,3.788,0"/>
			<path style="fill:none;stroke:#263238;stroke-miterlimit:10;" d="M170.642,265.169c0,0,1.698-0.131,2.351,0.392"/>
			<polygon style="fill:#263238;stroke:#263238;stroke-miterlimit:10;" points="166.463,273.267 161.891,272.353 164.373,277.185 
							"/>
		</g>
		<g>
			<path style="fill:#92E3A9;stroke:#263238;stroke-miterlimit:10;" d="M150.397,274.119c0,0-25.739,7.722-26.333,9.108
				c-0.594,1.386-4.95,30.887-5.148,32.668c-0.198,1.782-6.93,11.285-5.94,14.453c0.99,3.168,8.316,11.879,12.473,14.453
				c4.158,2.574,6.93,3.762,6.93,3.762s6.732-20.987,10.692-34.253C147.031,301.046,150.397,274.119,150.397,274.119z"/>
			<path style="fill:#92E3A9;stroke:#263238;stroke-miterlimit:10;" d="M150.397,274.119c0,0-4.001,1.201-8.881,2.738
				c-0.475,8.347-1.775,32.008-1.613,37.85c0.084,3.009,0.132,6.474,0.16,9.477c1.071-3.464,2.111-6.867,3.008-9.872
				C147.031,301.046,150.397,274.119,150.397,274.119z"/>
		</g>
		<g>
			<path style="fill:#FFFFFF;stroke:#263238;stroke-miterlimit:10;" d="M200.965,278.328c-3.382-4.791-4.072-14.818-6.764-19.304
				c-2.692-4.487-6.057-5.409-6.057-5.409l-1.41-0.385c0,0-1.667,0.385-2.948,0c-1.282-0.385-4.615-1.538-4.615-1.538
				s-2.436,0.385-3.333-0.256c-0.897-0.641,1.667-0.769,0.385-1.154c-1.282-0.385-6.41-0.641-7.435-1.667
				c-1.025-1.025,4.359-1.282,4.359-1.282s3.205-1.026,5.64-0.769c2.436,0.256,9.358,1.282,10.64,1.41
				c1.282,0.128,5.256,3.718,5.256,3.718s10.383,10.768,12.947,14.742c2.564,3.974,3.589,6.666,3.718,7.691
				c0.128,1.026,0.128,1.667,0.128,1.667"/>
			<path style="fill:#92E3A9;stroke:#263238;stroke-miterlimit:10;" d="M201.897,280.538c-1.958-0.734-4.651-7.344-5.875-10.526
				s-5.875-11.995-5.875-11.995l6.609-5.386l12.485,15.422c0,0,5.268,4.971,1.165,11.543"/>
			<path style="fill:none;stroke:#263238;stroke-miterlimit:10;" d="M175.326,247.206c0,0-1.41,1.154,2.051,1.538
				c3.461,0.385,4.359,0.256,4.359,0.256s1.795,2.307,5.128,2.948"/>
		</g>
		<g>
			<g>
				<g>
					
						<rect x="94.826" y="353.994" transform="matrix(0.2467 -0.9691 0.9691 0.2467 -269.8712 362.8906)" style="fill:#263238;stroke:#263238;stroke-miterlimit:10;" width="7.332" height="2.09"/>
				</g>
				<g>
					
						<rect x="84.54" y="349.037" transform="matrix(0.3118 -0.9501 0.9501 0.3118 -272.1205 324.4662)" style="fill:#263238;stroke:#263238;stroke-miterlimit:10;" width="6.769" height="2.09"/>
				</g>
				<g>
					<path style="fill:#263238;stroke:#263238;stroke-miterlimit:10;" d="M99.748,352.081c-0.192,0-0.388-0.039-0.574-0.123
						l-10.605-4.703c-0.716-0.317-1.039-1.155-0.722-1.872c0.317-0.716,1.156-1.04,1.872-0.722l10.605,4.702
						c0.716,0.317,1.039,1.155,0.722,1.872C100.811,351.766,100.292,352.081,99.748,352.081z"/>
				</g>
				<g>
					<polygon style="fill:#B2B2B2;stroke:#263238;stroke-miterlimit:10;" points="76.827,345.621 108.426,361.492 104.26,398.813 
						99.226,399.68 64.874,380.945 					"/>
					<polygon style="fill:#B2B2B2;stroke:#263238;stroke-miterlimit:10;" points="108.426,361.492 99.226,399.68 104.26,398.813 
											"/>
					<path style="fill:none;stroke:#263238;stroke-miterlimit:10;" d="M76.827,345.621c0,0,4.909,26.786,11.099,26.466
						c4.797-0.248,20.501-10.596,20.501-10.596"/>
					<polygon style="fill:#FFFFFF;stroke:#263238;stroke-miterlimit:10;" points="85.151,368.352 83.443,374.329 86.004,375.929 
						88.032,369.74 					"/>
				</g>
			</g>
			<path style="fill:#FFFFFF;stroke:#263238;stroke-miterlimit:10;" d="M100.313,342.809l-2.096,11.431c0,0-1.334,1.048-2.286,0.762
				c-0.953-0.286-1.334-1.905-1.334-1.905s-5.239-1.334-5.62-3.81c-0.381-2.477,4.502-9.633,4.502-9.633L100.313,342.809z"/>
			<path style="fill:#92E3A9;stroke:#263238;stroke-miterlimit:10;" d="M124.064,283.227l-21.977,26.729l-9.108,29.699l7.916,3.491
				l12.477-25.468l18.215-15.839c0,0,1.782-3.168,0.396-6.732"/>
		</g>
	</g>
</g>
<g id="Trophy">
	<g>
		<g>
			<rect x="587.514" y="99.853" style="fill:#92E3A9;stroke:#263238;stroke-miterlimit:10;" width="8.111" height="50.158"/>
			<g>
				<g>
					<path style="fill:#92E3A9;stroke:#263238;stroke-miterlimit:10;" d="M574.809,99.166c-9.842,0-17.57-3.052-22.972-9.072
						c-9.782-10.904-8.107-27.472-8.031-28.172l0,0c0.165-1.522,1.451-2.676,2.982-2.676h26.546v6H552.77
						c-1.738,0-3.119,1.469-2.995,3.203c0.364,5.061,1.781,12.363,6.55,17.662c4.214,4.682,10.433,7.055,18.484,7.055V99.166z"/>
				</g>
				<g>
					<path style="fill:#92E3A9;stroke:#263238;stroke-miterlimit:10;" d="M608.33,99.166c9.842,0,17.57-3.052,22.972-9.072
						c9.782-10.904,8.107-27.472,8.031-28.172h0c-0.166-1.522-1.451-2.676-2.983-2.676h-26.546v6h20.565
						c1.738,0,3.119,1.469,2.995,3.203c-0.364,5.061-1.781,12.363-6.55,17.662c-4.214,4.682-10.433,7.055-18.484,7.055V99.166z"/>
				</g>
				<path style="fill:#92E3A9;stroke:#263238;stroke-miterlimit:10;" d="M591.505,110.177h-0.209
					c-12.363,0-22.386-10.022-22.386-22.386V53.398h44.981v34.393C613.891,100.154,603.868,110.177,591.505,110.177z"/>
				<path style="fill:#263238;" d="M609.538,53.398v33.302c0,11.55-9.331,20.986-21.091,21.636c0.429,0.024,0.86,0.039,1.295,0.039
					h0c12.363,0,22.386-9.704,22.386-21.675V53.398H609.538z"/>
				<path style="fill:#FFFFFF;" d="M573.391,53.398v33.11c0,11.483,8.268,20.866,18.689,21.512c-0.38,0.024-0.762,0.038-1.147,0.038
					l0,0c-10.955,0-19.836-9.648-19.836-21.55v-33.11H573.391z"/>
				<rect x="568.91" y="53.398" style="fill:#92E3A9;stroke:#263238;stroke-miterlimit:10;" width="44.981" height="9.849"/>
			</g>
			<path style="fill:#92E3A9;stroke:#263238;stroke-miterlimit:10;" d="M596.057,134.372h-8.672c-1.176,0-2.13-0.954-2.13-2.13
				v-9.052c0-1.176,0.954-2.13,2.13-2.13h8.672c1.176,0,2.13,0.954,2.13,2.13v9.052
				C598.187,133.418,597.233,134.372,596.057,134.372z"/>
			<path style="fill:#92E3A9;stroke:#263238;stroke-miterlimit:10;" d="M617.473,150.603c-1.114-3.033-4.02-5.201-7.44-5.201
				h-36.624c-3.42,0-6.325,2.168-7.44,5.201H617.473z"/>
			<path style="fill:#92E3A9;stroke:#263238;stroke-miterlimit:10;" d="M576.888,58.302c0-1.05-0.852-1.902-1.902-1.902
				s-1.902,0.851-1.902,1.902s0.851,1.902,1.902,1.902S576.888,59.353,576.888,58.302z"/>
			<path style="fill:#92E3A9;stroke:#263238;stroke-miterlimit:10;" d="M585.255,58.302c0-1.05-0.851-1.902-1.902-1.902
				s-1.902,0.851-1.902,1.902s0.851,1.902,1.902,1.902S585.255,59.353,585.255,58.302z"/>
			<path style="fill:#92E3A9;stroke:#263238;stroke-miterlimit:10;" d="M593.623,58.302c0-1.05-0.852-1.902-1.902-1.902
				s-1.902,0.851-1.902,1.902s0.851,1.902,1.902,1.902S593.623,59.353,593.623,58.302z"/>
			<path style="fill:#92E3A9;stroke:#263238;stroke-miterlimit:10;" d="M601.991,58.302c0-1.05-0.851-1.902-1.902-1.902
				s-1.902,0.851-1.902,1.902s0.851,1.902,1.902,1.902S601.991,59.353,601.991,58.302z"/>
			<path style="fill:#92E3A9;stroke:#263238;stroke-miterlimit:10;" d="M610.358,58.302c0-1.05-0.852-1.902-1.902-1.902
				s-1.902,0.851-1.902,1.902s0.851,1.902,1.902,1.902S610.358,59.353,610.358,58.302z"/>
			<g>
				<g>
					
						<ellipse transform="matrix(0.2484 -0.9686 0.9686 0.2484 364.093 635.0751)" style="fill:#263238;stroke:#263238;stroke-miterlimit:10;" cx="591.307" cy="82.906" rx="14.487" ry="14.487"/>
					<path style="fill:#FFFFFF;" d="M594.204,90.632h-2.95V79.515c-1.078,1.007-2.348,1.753-3.812,2.235v-2.677
						c0.77-0.252,1.606-0.73,2.509-1.433c0.904-0.703,1.522-1.524,1.858-2.462h2.394V90.632z"/>
				</g>
			</g>
		</g>
		<line style="fill:none;stroke:#263238;stroke-miterlimit:10;" x1="591.98" y1="26.708" x2="591.98" y2="44.138"/>
		<line style="fill:none;stroke:#263238;stroke-miterlimit:10;" x1="517.177" y1="79.724" x2="534.607" y2="79.724"/>
		<line style="fill:none;stroke:#263238;stroke-miterlimit:10;" x1="555.526" y1="114.725" x2="558.199" y2="112.052"/>
		<line style="fill:none;stroke:#263238;stroke-miterlimit:10;" x1="545.874" y1="124.377" x2="552.93" y2="117.321"/>
		<line style="fill:none;stroke:#263238;stroke-miterlimit:10;" x1="637.977" y1="119.911" x2="630.118" y2="112.052"/>
		<line style="fill:none;stroke:#263238;stroke-miterlimit:10;" x1="642.443" y1="124.377" x2="640.194" y2="122.128"/>
		<line style="fill:none;stroke:#263238;stroke-miterlimit:10;" x1="555.911" y1="48.739" x2="558.199" y2="51.027"/>
		<line style="fill:none;stroke:#263238;stroke-miterlimit:10;" x1="545.874" y1="38.702" x2="553.541" y2="46.369"/>
		<line style="fill:none;stroke:#263238;stroke-miterlimit:10;" x1="642.443" y1="38.702" x2="630.118" y2="51.027"/>
		<line style="fill:none;stroke:#263238;stroke-miterlimit:10;" x1="661.205" y1="79.724" x2="664.604" y2="79.724"/>
		<line style="fill:none;stroke:#263238;stroke-miterlimit:10;" x1="647.174" y1="79.724" x2="657.819" y2="79.724"/>
	</g>
</g>
<g id="Floor">
	<g>
		<line style="fill:#FFFFFF;stroke:#263238;stroke-miterlimit:10;" x1="705.724" y1="450.798" x2="726.671" y2="450.798"/>
		<line style="fill:#FFFFFF;stroke:#263238;stroke-miterlimit:10;" x1="86.349" y1="450.798" x2="697.575" y2="450.798"/>
		<line style="fill:#FFFFFF;stroke:#263238;stroke-miterlimit:10;" x1="19.521" y1="450.798" x2="77.384" y2="450.798"/>
	</g>
</g>
</svg>
